<?xml version="1.0" encoding="UTF-8" standalone="no"?>
<!-- Created with Inkscape (http://www.inkscape.org/) -->

<svg
   width="1000"
   height="1000"
   viewBox="0 0 264.58333 264.58333"
   version="1.1"
   id="svg5"
   xml:space="preserve"
   inkscape:version="1.2.2 (732a01da63, 2022-12-09)"
   sodipodi:docname="myna-logo.svg"
   xmlns:inkscape="http://www.inkscape.org/namespaces/inkscape"
   xmlns:sodipodi="http://sodipodi.sourceforge.net/DTD/sodipodi-0.dtd"
   xmlns="http://www.w3.org/2000/svg"
   xmlns:svg="http://www.w3.org/2000/svg"><sodipodi:namedview
     id="namedview7"
     pagecolor="#505050"
     bordercolor="#ffffff"
     borderopacity="1"
     inkscape:showpageshadow="0"
     inkscape:pageopacity="0"
     inkscape:pagecheckerboard="1"
     inkscape:deskcolor="#505050"
     inkscape:document-units="mm"
     showgrid="false"
     inkscape:zoom="0.70710678"
     inkscape:cx="854.18499"
     inkscape:cy="435.57778"
     inkscape:window-width="1857"
     inkscape:window-height="1057"
     inkscape:window-x="-8"
     inkscape:window-y="-8"
     inkscape:window-maximized="1"
     inkscape:current-layer="layer1" /><defs
     id="defs2" /><g
     inkscape:label="Layer 1"
     inkscape:groupmode="layer"
     id="layer1"><path
       style="display:inline;fill:#080808;fill-opacity:1;stroke:#ffffff;stroke-width:3;stroke-dasharray:none;stroke-opacity:1;paint-order:stroke fill markers"
       d="m 80.759731,73.822661 c 0,0 40.788319,-24.590078 91.724889,-12.685357 50.93661,11.904716 53.86399,57.376856 63.03648,90.749106 9.17249,33.37225 12.49019,44.69149 12.49019,44.69149 0,0 -50.15593,-13.07567 -89.77329,-7.61121 -39.12482,9.73088 -49.16422,17.75512 -83.333052,37.66576 0,0 31.085672,-43.85696 28.502832,-64.74304 -3.0539,-24.49378 -9.070921,-45.4159 -29.612261,-60.31789 z"
       id="path698"
       sodipodi:nodetypes="csscccccc" /><path
       style="display:inline;fill:#ffd42a;stroke:none;stroke-width:3;stroke-linecap:butt;stroke-linejoin:round;stroke-dasharray:none;stroke-opacity:1;paint-order:stroke fill markers"
       d="m 80.92364,71.998846 c 0,0 -14.996022,-3.055168 -29.828135,-1.298737 -14.832108,1.756437 -24.39492,11.124087 -24.39492,11.124087 0,0 17.291794,4.971183 26.464286,9.069514 9.172489,4.09836 20.033107,12.10739 20.033107,12.10739 24.376028,-14.214445 46.090042,13.51819 66.077832,19.27019 7.17591,1.72498 21.46831,6.22406 29.53167,0.966 7.56131,-5.29181 12.84018,-8.43649 22.70077,-5.31297 2.13896,0.75901 4.41593,2.13899 4.41593,2.13899 0,0 -4.76167,-15.52909 -15.52483,-23.666754 -9.74275,-7.36615 -15.52483,-7.2449 -15.52483,-7.2449 0,0 5.38196,16.007824 -9.59089,21.182754 -14.97283,5.17496 -25.4176,-4.41867 -25.59872,-10.418864 -0.39032,-12.93112 17.52581,-15.731844 17.52581,-15.731844 0,0 -7.92224,-1.508176 -14.20116,2.700774 -6.27893,4.20896 -8.0466,12.36678 -8.0466,12.36678 C 111.13598,81.207114 81.706107,82.770103 80.92364,71.998846 Z"
       id="path539"
       sodipodi:nodetypes="cscscccccscsscscc" /><ellipse
       style="display:inline;fill:#1a1a1a;stroke-width:0.30658"
       id="path807"
       cx="149.91933"
       cy="97.900459"
       rx="10.85574"
       ry="8.7089872" /><ellipse
       style="fill:#000000;stroke-width:0.313325"
       id="path861"
       ry="6.9159603"
       rx="7.1599088"
       cy="97.253983"
       cx="149.4924" /><path
       style="fill:#ffffff;stroke-width:0.223052"
       id="path915"
       sodipodi:type="arc"
       sodipodi:cx="144.38174"
       sodipodi:cy="92.661972"
       sodipodi:rx="2.1907265"
       sodipodi:ry="1.4576093"
       sodipodi:start="0"
       sodipodi:end="6.2803933"
       sodipodi:arc-type="slice"
       d="m 146.57247,92.661972 a 2.1907265,1.4576093 0 0 1 -2.1892,1.457609 2.1907265,1.4576093 0 0 1 -2.19225,-1.455574 2.1907265,1.4576093 0 0 1 2.18614,-1.459641 2.1907265,1.4576093 0 0 1 2.1953,1.453536 l -2.19072,0.0041 z" /></g></svg>
