<?xml version="1.0" encoding="UTF-8" standalone="no"?>
<!-- Created with Inkscape (http://www.inkscape.org/) -->

<svg
   width="1000"
   height="1000"
   viewBox="0 0 264.58333 264.58333"
   version="1.1"
   id="svg5"
   xml:space="preserve"
   inkscape:version="1.2.2 (732a01da63, 2022-12-09)"
   sodipodi:docname="silhouette.svg"
   xmlns:inkscape="http://www.inkscape.org/namespaces/inkscape"
   xmlns:sodipodi="http://sodipodi.sourceforge.net/DTD/sodipodi-0.dtd"
   xmlns="http://www.w3.org/2000/svg"
   xmlns:svg="http://www.w3.org/2000/svg"><sodipodi:namedview
     id="namedview7"
     pagecolor="#505050"
     bordercolor="#ffffff"
     borderopacity="1"
     inkscape:showpageshadow="0"
     inkscape:pageopacity="0"
     inkscape:pagecheckerboard="1"
     inkscape:deskcolor="#505050"
     inkscape:document-units="mm"
     showgrid="false"
     inkscape:zoom="1.327"
     inkscape:cx="500"
     inkscape:cy="512.43406"
     inkscape:window-width="1857"
     inkscape:window-height="1057"
     inkscape:window-x="-8"
     inkscape:window-y="-8"
     inkscape:window-maximized="1"
     inkscape:current-layer="layer1" /><defs
     id="defs2" /><g
     inkscape:label="Layer 1"
     inkscape:groupmode="layer"
     id="layer1"><path
       style="display:inline;fill:#080808;fill-opacity:1;stroke-width:0.30658"
       d="m 80.759731,73.822661 c 0,0 40.788319,-24.590078 91.724889,-12.685357 50.93661,11.904716 53.86399,57.376856 63.03648,90.749106 9.17249,33.37225 12.49019,44.69149 12.49019,44.69149 0,0 -50.15593,-13.07567 -89.77329,-7.61121 -39.12482,9.73088 -49.16422,17.75512 -83.333052,37.66576 0,0 22.83365,-40.20284 22.248169,-60.30424 -3.053899,-24.49378 -2.816258,-49.8547 -23.357598,-64.75669 z"
       id="path698"
       sodipodi:nodetypes="csscccccc" /><path
       style="display:inline;fill:#080808;stroke-width:0.30658;fill-opacity:1"
       d="m 82.125848,72.261386 c 0,0 -16.19823,-3.317708 -31.030343,-1.561277 -14.832108,1.756437 -24.39492,11.124087 -24.39492,11.124087 0,0 18.540141,4.293509 27.712633,8.39184 9.172489,4.09836 19.515935,11.514424 19.515935,11.514424 24.376028,-14.214444 45.358867,14.78883 65.346657,20.54083 7.17591,1.72498 21.46831,6.22406 29.53167,0.966 7.56131,-5.29181 12.84018,-8.43649 22.70077,-5.31297 2.13896,0.75901 4.41593,2.13899 4.41593,2.13899 0,0 -4.76167,-15.52909 -15.52483,-23.666754 -9.74275,-7.36615 -15.52483,-7.2449 -15.52483,-7.2449 0,0 5.38196,16.007824 -9.59089,21.182754 -14.97283,5.17496 -25.4176,-4.41867 -25.59872,-10.418864 -0.39032,-12.93112 17.52581,-15.731844 17.52581,-15.731844 0,0 -7.92224,-1.508176 -14.20116,2.700774 -6.27893,4.20896 -8.0466,12.36678 -8.0466,12.36678 C 111.13598,81.207114 82.908315,83.032643 82.125848,72.261386 Z"
       id="path539"
       sodipodi:nodetypes="cscscccccscsscscc" /></g></svg>
